<?xml version="1.0" encoding="us-ascii" standalone="no"?><svg xmlns="http://www.w3.org/2000/svg" xmlns:xlink="http://www.w3.org/1999/xlink" contentStyleType="text/css" height="1488px" preserveAspectRatio="none" style="width:2066px;height:1488px;background:#FFFFFF;" version="1.1" viewBox="0 0 2066 1488" width="2066px" zoomAndPan="magnify"><defs/><g><!--class Sensor--><g id="elem_Sensor"><rect codeLine="3" fill="#F1F1F1" height="357.6406" id="Sensor" rx="2.5" ry="2.5" style="stroke:#181818;stroke-width:0.5;" width="518" x="108.73" y="695"/><ellipse cx="339.48" cy="711" fill="#A9DCDF" rx="11" ry="11" style="stroke:#181818;stroke-width:1.0;"/><path d="M339.5894,706.3438 L338.4331,711.4219 L340.7613,711.4219 L339.5894,706.3438 Z M338.105,704.1094 L341.0894,704.1094 L344.4488,716.5 L341.9956,716.5 L341.23,713.4375 L337.9488,713.4375 L337.1988,716.5 L334.7613,716.5 L338.105,704.1094 Z " fill="#000000"/><text fill="#000000" font-family="sans-serif" font-size="14" font-style="italic" lengthAdjust="spacing" textLength="48" x="359.98" y="715.8467">Sensor</text><line style="stroke:#181818;stroke-width:0.5;" x1="109.73" x2="625.73" y1="727" y2="727"/><polygon fill="none" points="119.73,735.6484,123.73,739.6484,119.73,743.6484,115.73,739.6484" style="stroke:#B38D22;stroke-width:1.0;"/><text fill="#000000" font-family="sans-serif" font-size="14" lengthAdjust="spacing" textLength="94" x="128.73" y="743.9951">name_: string</text><polygon fill="none" points="119.73,751.9453,123.73,755.9453,119.73,759.9453,115.73,755.9453" style="stroke:#B38D22;stroke-width:1.0;"/><text fill="#000000" font-family="sans-serif" font-size="14" lengthAdjust="spacing" textLength="133" x="128.73" y="760.292">frequency_: double</text><polygon fill="none" points="119.73,768.2422,123.73,772.2422,119.73,776.2422,115.73,772.2422" style="stroke:#B38D22;stroke-width:1.0;"/><text fill="#000000" font-family="sans-serif" font-size="14" lengthAdjust="spacing" textLength="108" x="128.73" y="776.5889">buffer_size_: int</text><polygon fill="none" points="119.73,784.5391,123.73,788.5391,119.73,792.5391,115.73,788.5391" style="stroke:#B38D22;stroke-width:1.0;"/><text fill="#000000" font-family="sans-serif" font-size="14" lengthAdjust="spacing" textLength="102" x="128.73" y="792.8857">noise_: double</text><polygon fill="none" points="119.73,800.8359,123.73,804.8359,119.73,808.8359,115.73,804.8359" style="stroke:#B38D22;stroke-width:1.0;"/><text fill="#000000" font-family="sans-serif" font-size="14" lengthAdjust="spacing" textLength="169" x="128.73" y="809.1826">running_: atomic&lt;bool&gt;</text><polygon fill="none" points="119.73,817.1328,123.73,821.1328,119.73,825.1328,115.73,821.1328" style="stroke:#B38D22;stroke-width:1.0;"/><text fill="#000000" font-family="sans-serif" font-size="14" lengthAdjust="spacing" textLength="207" x="128.73" y="825.4795">fault_injected_: atomic&lt;bool&gt;</text><polygon fill="none" points="119.73,833.4297,123.73,837.4297,119.73,841.4297,115.73,837.4297" style="stroke:#B38D22;stroke-width:1.0;"/><text fill="#000000" font-family="sans-serif" font-size="14" lengthAdjust="spacing" textLength="106" x="128.73" y="841.7764">thread_: thread</text><polygon fill="none" points="119.73,849.7266,123.73,853.7266,119.73,857.7266,115.73,853.7266" style="stroke:#B38D22;stroke-width:1.0;"/><text fill="#000000" font-family="sans-serif" font-size="14" lengthAdjust="spacing" textLength="149" x="128.73" y="858.0732">buffer_mutex_: mutex</text><polygon fill="none" points="119.73,866.0234,123.73,870.0234,119.73,874.0234,115.73,870.0234" style="stroke:#B38D22;stroke-width:1.0;"/><text fill="#000000" font-family="sans-serif" font-size="14" lengthAdjust="spacing" textLength="173" x="128.73" y="874.3701">last_update_: Timestamp</text><polygon fill="none" points="119.73,882.3203,123.73,886.3203,119.73,890.3203,115.73,886.3203" style="stroke:#B38D22;stroke-width:1.0;"/><text fill="#000000" font-family="sans-serif" font-size="14" lengthAdjust="spacing" textLength="189" x="128.73" y="890.667">last_update_mutex_: mutex</text><line style="stroke:#181818;stroke-width:0.5;" x1="109.73" x2="625.73" y1="897.9688" y2="897.9688"/><ellipse cx="119.73" cy="911.6172" fill="#84BE84" rx="3" ry="3" style="stroke:#038048;stroke-width:1.0;"/><text fill="#000000" font-family="sans-serif" font-size="14" lengthAdjust="spacing" textLength="492" x="128.73" y="914.9639">Sensor(name: string, frequency: double, buffer_size: int, noise: double)</text><ellipse cx="119.73" cy="927.9141" fill="#84BE84" rx="3" ry="3" style="stroke:#038048;stroke-width:1.0;"/><text fill="#000000" font-family="sans-serif" font-size="14" lengthAdjust="spacing" textLength="41" x="128.73" y="931.2607">start()</text><ellipse cx="119.73" cy="944.2109" fill="#84BE84" rx="3" ry="3" style="stroke:#038048;stroke-width:1.0;"/><text fill="#000000" font-family="sans-serif" font-size="14" lengthAdjust="spacing" textLength="41" x="128.73" y="947.5576">stop()</text><ellipse cx="119.73" cy="960.5078" fill="#84BE84" rx="3" ry="3" style="stroke:#038048;stroke-width:1.0;"/><text fill="#000000" font-family="sans-serif" font-size="14" lengthAdjust="spacing" textLength="121" x="128.73" y="963.8545">getName(): string</text><ellipse cx="119.73" cy="976.8047" fill="#84BE84" rx="3" ry="3" style="stroke:#038048;stroke-width:1.0;"/><text fill="#000000" font-family="sans-serif" font-size="14" lengthAdjust="spacing" textLength="163" x="128.73" y="980.1514">getFrequency(): double</text><ellipse cx="119.73" cy="993.1016" fill="#84BE84" rx="3" ry="3" style="stroke:#038048;stroke-width:1.0;"/><text fill="#000000" font-family="sans-serif" font-size="14" lengthAdjust="spacing" textLength="197" x="128.73" y="996.4482">getLastUpdate(): Timestamp</text><ellipse cx="119.73" cy="1009.3984" fill="#84BE84" rx="3" ry="3" style="stroke:#038048;stroke-width:1.0;"/><text fill="#000000" font-family="sans-serif" font-size="14" lengthAdjust="spacing" textLength="118" x="128.73" y="1012.7451">isRunning(): bool</text><ellipse cx="119.73" cy="1025.6953" fill="#84BE84" rx="3" ry="3" style="stroke:#038048;stroke-width:1.0;"/><text fill="#000000" font-family="sans-serif" font-size="14" lengthAdjust="spacing" textLength="231" x="128.73" y="1029.042">setFrequency(frequency: double)</text><polygon fill="#FFFF44" points="119.73,1036.9922,123.73,1040.9922,119.73,1044.9922,115.73,1040.9922" style="stroke:#B38D22;stroke-width:1.0;"/><text fill="#000000" font-family="sans-serif" font-size="14" lengthAdjust="spacing" textLength="33" x="128.73" y="1045.3389">run()</text></g><!--class ImuSensor--><g id="elem_ImuSensor"><rect codeLine="27" fill="#F1F1F1" height="178.375" id="ImuSensor" rx="2.5" ry="2.5" style="stroke:#181818;stroke-width:0.5;" width="543" x="96.23" y="1121.5"/><ellipse cx="326.48" cy="1137.5" fill="#ADD1B2" rx="11" ry="11" style="stroke:#181818;stroke-width:1.0;"/><path d="M329.4488,1143.1406 Q328.8706,1143.4375 328.23,1143.5781 Q327.5894,1143.7344 326.8863,1143.7344 Q324.3863,1143.7344 323.0581,1142.0938 Q321.7456,1140.4375 321.7456,1137.3125 Q321.7456,1134.1875 323.0581,1132.5313 Q324.3863,1130.875 326.8863,1130.875 Q327.5894,1130.875 328.23,1131.0313 Q328.8863,1131.1875 329.4488,1131.4844 L329.4488,1134.2031 Q328.8238,1133.625 328.23,1133.3594 Q327.6363,1133.0781 327.0113,1133.0781 Q325.6675,1133.0781 324.98,1134.1563 Q324.2925,1135.2188 324.2925,1137.3125 Q324.2925,1139.4063 324.98,1140.4844 Q325.6675,1141.5469 327.0113,1141.5469 Q327.6363,1141.5469 328.23,1141.2813 Q328.8238,1141 329.4488,1140.4219 L329.4488,1143.1406 Z " fill="#000000"/><text fill="#000000" font-family="sans-serif" font-size="14" lengthAdjust="spacing" textLength="74" x="346.98" y="1142.3467">ImuSensor</text><line style="stroke:#181818;stroke-width:0.5;" x1="97.23" x2="638.23" y1="1153.5" y2="1153.5"/><rect fill="none" height="6" style="stroke:#C82930;stroke-width:1.0;" width="6" x="104.23" y="1164.1484"/><text fill="#000000" font-family="sans-serif" font-size="14" lengthAdjust="spacing" textLength="182" x="116.23" y="1170.4951">buffer_: deque&lt;ImuData&gt;</text><line style="stroke:#181818;stroke-width:0.5;" x1="97.23" x2="638.23" y1="1177.7969" y2="1177.7969"/><ellipse cx="107.23" cy="1191.4453" fill="#84BE84" rx="3" ry="3" style="stroke:#038048;stroke-width:1.0;"/><text fill="#000000" font-family="sans-serif" font-size="14" lengthAdjust="spacing" textLength="517" x="116.23" y="1194.792">ImuSensor(name: string, frequency: double, buffer_size: int, noise: double)</text><ellipse cx="107.23" cy="1207.7422" fill="#84BE84" rx="3" ry="3" style="stroke:#038048;stroke-width:1.0;"/><text fill="#000000" font-family="sans-serif" font-size="14" lengthAdjust="spacing" textLength="41" x="116.23" y="1211.0889">start()</text><ellipse cx="107.23" cy="1224.0391" fill="#84BE84" rx="3" ry="3" style="stroke:#038048;stroke-width:1.0;"/><text fill="#000000" font-family="sans-serif" font-size="14" lengthAdjust="spacing" textLength="41" x="116.23" y="1227.3857">stop()</text><ellipse cx="107.23" cy="1240.3359" fill="#84BE84" rx="3" ry="3" style="stroke:#038048;stroke-width:1.0;"/><text fill="#000000" font-family="sans-serif" font-size="14" lengthAdjust="spacing" textLength="166" x="116.23" y="1243.6826">injectFault(enable: bool)</text><ellipse cx="107.23" cy="1256.6328" fill="#84BE84" rx="3" ry="3" style="stroke:#038048;stroke-width:1.0;"/><text fill="#000000" font-family="sans-serif" font-size="14" lengthAdjust="spacing" textLength="209" x="116.23" y="1259.9795">getBuffer(): deque&lt;ImuData&gt;</text><rect fill="#F24D5C" height="6" style="stroke:#C82930;stroke-width:1.0;" width="6" x="104.23" y="1269.9297"/><text fill="#000000" font-family="sans-serif" font-size="14" lengthAdjust="spacing" textLength="33" x="116.23" y="1276.2764">run()</text><rect fill="#F24D5C" height="6" style="stroke:#C82930;stroke-width:1.0;" width="6" x="104.23" y="1286.2266"/><text fill="#000000" font-family="sans-serif" font-size="14" lengthAdjust="spacing" textLength="190" x="116.23" y="1292.5732">generateSample(): ImuData</text></g><!--class GnssSensor--><g id="elem_GnssSensor"><rect codeLine="38" fill="#F1F1F1" height="178.375" id="GnssSensor" rx="2.5" ry="2.5" style="stroke:#181818;stroke-width:0.5;" width="554" x="789.73" y="1121.5"/><ellipse cx="1019.98" cy="1137.5" fill="#ADD1B2" rx="11" ry="11" style="stroke:#181818;stroke-width:1.0;"/><path d="M1022.9488,1143.1406 Q1022.3706,1143.4375 1021.73,1143.5781 Q1021.0894,1143.7344 1020.3863,1143.7344 Q1017.8863,1143.7344 1016.5581,1142.0938 Q1015.2456,1140.4375 1015.2456,1137.3125 Q1015.2456,1134.1875 1016.5581,1132.5313 Q1017.8863,1130.875 1020.3863,1130.875 Q1021.0894,1130.875 1021.73,1131.0313 Q1022.3863,1131.1875 1022.9488,1131.4844 L1022.9488,1134.2031 Q1022.3238,1133.625 1021.73,1133.3594 Q1021.1363,1133.0781 1020.5113,1133.0781 Q1019.1675,1133.0781 1018.48,1134.1563 Q1017.7925,1135.2188 1017.7925,1137.3125 Q1017.7925,1139.4063 1018.48,1140.4844 Q1019.1675,1141.5469 1020.5113,1141.5469 Q1021.1363,1141.5469 1021.73,1141.2813 Q1022.3238,1141 1022.9488,1140.4219 L1022.9488,1143.1406 Z " fill="#000000"/><text fill="#000000" font-family="sans-serif" font-size="14" lengthAdjust="spacing" textLength="85" x="1040.48" y="1142.3467">GnssSensor</text><line style="stroke:#181818;stroke-width:0.5;" x1="790.73" x2="1342.73" y1="1153.5" y2="1153.5"/><rect fill="none" height="6" style="stroke:#C82930;stroke-width:1.0;" width="6" x="797.73" y="1164.1484"/><text fill="#000000" font-family="sans-serif" font-size="14" lengthAdjust="spacing" textLength="193" x="809.73" y="1170.4951">buffer_: deque&lt;GnssData&gt;</text><line style="stroke:#181818;stroke-width:0.5;" x1="790.73" x2="1342.73" y1="1177.7969" y2="1177.7969"/><ellipse cx="800.73" cy="1191.4453" fill="#84BE84" rx="3" ry="3" style="stroke:#038048;stroke-width:1.0;"/><text fill="#000000" font-family="sans-serif" font-size="14" lengthAdjust="spacing" textLength="528" x="809.73" y="1194.792">GnssSensor(name: string, frequency: double, buffer_size: int, noise: double)</text><ellipse cx="800.73" cy="1207.7422" fill="#84BE84" rx="3" ry="3" style="stroke:#038048;stroke-width:1.0;"/><text fill="#000000" font-family="sans-serif" font-size="14" lengthAdjust="spacing" textLength="41" x="809.73" y="1211.0889">start()</text><ellipse cx="800.73" cy="1224.0391" fill="#84BE84" rx="3" ry="3" style="stroke:#038048;stroke-width:1.0;"/><text fill="#000000" font-family="sans-serif" font-size="14" lengthAdjust="spacing" textLength="41" x="809.73" y="1227.3857">stop()</text><ellipse cx="800.73" cy="1240.3359" fill="#84BE84" rx="3" ry="3" style="stroke:#038048;stroke-width:1.0;"/><text fill="#000000" font-family="sans-serif" font-size="14" lengthAdjust="spacing" textLength="166" x="809.73" y="1243.6826">injectFault(enable: bool)</text><ellipse cx="800.73" cy="1256.6328" fill="#84BE84" rx="3" ry="3" style="stroke:#038048;stroke-width:1.0;"/><text fill="#000000" font-family="sans-serif" font-size="14" lengthAdjust="spacing" textLength="220" x="809.73" y="1259.9795">getBuffer(): deque&lt;GnssData&gt;</text><rect fill="#F24D5C" height="6" style="stroke:#C82930;stroke-width:1.0;" width="6" x="797.73" y="1269.9297"/><text fill="#000000" font-family="sans-serif" font-size="14" lengthAdjust="spacing" textLength="33" x="809.73" y="1276.2764">run()</text><rect fill="#F24D5C" height="6" style="stroke:#C82930;stroke-width:1.0;" width="6" x="797.73" y="1286.2266"/><text fill="#000000" font-family="sans-serif" font-size="14" lengthAdjust="spacing" textLength="201" x="809.73" y="1292.5732">generateSample(): GnssData</text></g><!--class ImuData--><g id="elem_ImuData"><rect codeLine="50" fill="#F1F1F1" height="113.1875" id="ImuData" rx="2.5" ry="2.5" style="stroke:#181818;stroke-width:0.5;" width="185" x="275.23" y="1368"/><ellipse cx="334.98" cy="1384" fill="#ADD1B2" rx="11" ry="11" style="stroke:#181818;stroke-width:1.0;"/><path d="M337.9488,1389.6406 Q337.3706,1389.9375 336.73,1390.0781 Q336.0894,1390.2344 335.3863,1390.2344 Q332.8863,1390.2344 331.5581,1388.5938 Q330.2456,1386.9375 330.2456,1383.8125 Q330.2456,1380.6875 331.5581,1379.0313 Q332.8863,1377.375 335.3863,1377.375 Q336.0894,1377.375 336.73,1377.5313 Q337.3863,1377.6875 337.9488,1377.9844 L337.9488,1380.7031 Q337.3238,1380.125 336.73,1379.8594 Q336.1363,1379.5781 335.5113,1379.5781 Q334.1675,1379.5781 333.48,1380.6563 Q332.7925,1381.7188 332.7925,1383.8125 Q332.7925,1385.9063 333.48,1386.9844 Q334.1675,1388.0469 335.5113,1388.0469 Q336.1363,1388.0469 336.73,1387.7813 Q337.3238,1387.5 337.9488,1386.9219 L337.9488,1389.6406 Z " fill="#000000"/><text fill="#000000" font-family="sans-serif" font-size="14" lengthAdjust="spacing" textLength="57" x="355.48" y="1388.8467">ImuData</text><line style="stroke:#181818;stroke-width:0.5;" x1="276.23" x2="459.23" y1="1400" y2="1400"/><ellipse cx="286.23" cy="1413.6484" fill="none" rx="3" ry="3" style="stroke:#038048;stroke-width:1.0;"/><text fill="#000000" font-family="sans-serif" font-size="14" lengthAdjust="spacing" textLength="159" x="295.23" y="1416.9951">timestamp: Timestamp</text><ellipse cx="286.23" cy="1429.9453" fill="none" rx="3" ry="3" style="stroke:#038048;stroke-width:1.0;"/><text fill="#000000" font-family="sans-serif" font-size="14" lengthAdjust="spacing" textLength="123" x="295.23" y="1433.292">att_rate_x: double</text><ellipse cx="286.23" cy="1446.2422" fill="none" rx="3" ry="3" style="stroke:#038048;stroke-width:1.0;"/><text fill="#000000" font-family="sans-serif" font-size="14" lengthAdjust="spacing" textLength="123" x="295.23" y="1449.5889">att_rate_y: double</text><ellipse cx="286.23" cy="1462.5391" fill="none" rx="3" ry="3" style="stroke:#038048;stroke-width:1.0;"/><text fill="#000000" font-family="sans-serif" font-size="14" lengthAdjust="spacing" textLength="124" x="295.23" y="1465.8857">att_rate_z: double</text><line style="stroke:#181818;stroke-width:0.5;" x1="276.23" x2="459.23" y1="1473.1875" y2="1473.1875"/></g><!--class GnssData--><g id="elem_GnssData"><rect codeLine="57" fill="#F1F1F1" height="113.1875" id="GnssData" rx="2.5" ry="2.5" style="stroke:#181818;stroke-width:0.5;" width="185" x="974.23" y="1368"/><ellipse cx="1028.48" cy="1384" fill="#ADD1B2" rx="11" ry="11" style="stroke:#181818;stroke-width:1.0;"/><path d="M1031.4488,1389.6406 Q1030.8706,1389.9375 1030.23,1390.0781 Q1029.5894,1390.2344 1028.8863,1390.2344 Q1026.3863,1390.2344 1025.0581,1388.5938 Q1023.7456,1386.9375 1023.7456,1383.8125 Q1023.7456,1380.6875 1025.0581,1379.0313 Q1026.3863,1377.375 1028.8863,1377.375 Q1029.5894,1377.375 1030.23,1377.5313 Q1030.8863,1377.6875 1031.4488,1377.9844 L1031.4488,1380.7031 Q1030.8238,1380.125 1030.23,1379.8594 Q1029.6363,1379.5781 1029.0113,1379.5781 Q1027.6675,1379.5781 1026.98,1380.6563 Q1026.2925,1381.7188 1026.2925,1383.8125 Q1026.2925,1385.9063 1026.98,1386.9844 Q1027.6675,1388.0469 1029.0113,1388.0469 Q1029.6363,1388.0469 1030.23,1387.7813 Q1030.8238,1387.5 1031.4488,1386.9219 L1031.4488,1389.6406 Z " fill="#000000"/><text fill="#000000" font-family="sans-serif" font-size="14" lengthAdjust="spacing" textLength="68" x="1048.98" y="1388.8467">GnssData</text><line style="stroke:#181818;stroke-width:0.5;" x1="975.23" x2="1158.23" y1="1400" y2="1400"/><ellipse cx="985.23" cy="1413.6484" fill="none" rx="3" ry="3" style="stroke:#038048;stroke-width:1.0;"/><text fill="#000000" font-family="sans-serif" font-size="14" lengthAdjust="spacing" textLength="159" x="994.23" y="1416.9951">timestamp: Timestamp</text><ellipse cx="985.23" cy="1429.9453" fill="none" rx="3" ry="3" style="stroke:#038048;stroke-width:1.0;"/><text fill="#000000" font-family="sans-serif" font-size="14" lengthAdjust="spacing" textLength="97" x="994.23" y="1433.292">pos_x: double</text><ellipse cx="985.23" cy="1446.2422" fill="none" rx="3" ry="3" style="stroke:#038048;stroke-width:1.0;"/><text fill="#000000" font-family="sans-serif" font-size="14" lengthAdjust="spacing" textLength="97" x="994.23" y="1449.5889">pos_y: double</text><ellipse cx="985.23" cy="1462.5391" fill="none" rx="3" ry="3" style="stroke:#038048;stroke-width:1.0;"/><text fill="#000000" font-family="sans-serif" font-size="14" lengthAdjust="spacing" textLength="98" x="994.23" y="1465.8857">pos_z: double</text><line style="stroke:#181818;stroke-width:0.5;" x1="975.23" x2="1158.23" y1="1473.1875" y2="1473.1875"/></g><!--class ProcessingOutput--><g id="elem_ProcessingOutput"><rect codeLine="64" fill="#F1F1F1" height="194.6719" id="ProcessingOutput" rx="2.5" ry="2.5" style="stroke:#181818;stroke-width:0.5;" width="185" x="1379.23" y="1113"/><ellipse cx="1406.83" cy="1129" fill="#ADD1B2" rx="11" ry="11" style="stroke:#181818;stroke-width:1.0;"/><path d="M1409.7988,1134.6406 Q1409.2206,1134.9375 1408.58,1135.0781 Q1407.9394,1135.2344 1407.2363,1135.2344 Q1404.7363,1135.2344 1403.4081,1133.5938 Q1402.0956,1131.9375 1402.0956,1128.8125 Q1402.0956,1125.6875 1403.4081,1124.0313 Q1404.7363,1122.375 1407.2363,1122.375 Q1407.9394,1122.375 1408.58,1122.5313 Q1409.2363,1122.6875 1409.7988,1122.9844 L1409.7988,1125.7031 Q1409.1738,1125.125 1408.58,1124.8594 Q1407.9863,1124.5781 1407.3613,1124.5781 Q1406.0175,1124.5781 1405.33,1125.6563 Q1404.6425,1126.7188 1404.6425,1128.8125 Q1404.6425,1130.9063 1405.33,1131.9844 Q1406.0175,1133.0469 1407.3613,1133.0469 Q1407.9863,1133.0469 1408.58,1132.7813 Q1409.1738,1132.5 1409.7988,1131.9219 L1409.7988,1134.6406 Z " fill="#000000"/><text fill="#000000" font-family="sans-serif" font-size="14" lengthAdjust="spacing" textLength="125" x="1423.63" y="1133.8467">ProcessingOutput</text><line style="stroke:#181818;stroke-width:0.5;" x1="1380.23" x2="1563.23" y1="1145" y2="1145"/><ellipse cx="1390.23" cy="1158.6484" fill="none" rx="3" ry="3" style="stroke:#038048;stroke-width:1.0;"/><text fill="#000000" font-family="sans-serif" font-size="14" lengthAdjust="spacing" textLength="159" x="1399.23" y="1161.9951">timestamp: Timestamp</text><ellipse cx="1390.23" cy="1174.9453" fill="none" rx="3" ry="3" style="stroke:#038048;stroke-width:1.0;"/><text fill="#000000" font-family="sans-serif" font-size="14" lengthAdjust="spacing" textLength="158" x="1399.23" y="1178.292">attitude_rate_x: double</text><ellipse cx="1390.23" cy="1191.2422" fill="none" rx="3" ry="3" style="stroke:#038048;stroke-width:1.0;"/><text fill="#000000" font-family="sans-serif" font-size="14" lengthAdjust="spacing" textLength="158" x="1399.23" y="1194.5889">attitude_rate_y: double</text><ellipse cx="1390.23" cy="1207.5391" fill="none" rx="3" ry="3" style="stroke:#038048;stroke-width:1.0;"/><text fill="#000000" font-family="sans-serif" font-size="14" lengthAdjust="spacing" textLength="159" x="1399.23" y="1210.8857">attitude_rate_z: double</text><ellipse cx="1390.23" cy="1223.8359" fill="none" rx="3" ry="3" style="stroke:#038048;stroke-width:1.0;"/><text fill="#000000" font-family="sans-serif" font-size="14" lengthAdjust="spacing" textLength="128" x="1399.23" y="1227.1826">last_pos_x: double</text><ellipse cx="1390.23" cy="1240.1328" fill="none" rx="3" ry="3" style="stroke:#038048;stroke-width:1.0;"/><text fill="#000000" font-family="sans-serif" font-size="14" lengthAdjust="spacing" textLength="128" x="1399.23" y="1243.4795">last_pos_y: double</text><ellipse cx="1390.23" cy="1256.4297" fill="none" rx="3" ry="3" style="stroke:#038048;stroke-width:1.0;"/><text fill="#000000" font-family="sans-serif" font-size="14" lengthAdjust="spacing" textLength="129" x="1399.23" y="1259.7764">last_pos_z: double</text><ellipse cx="1390.23" cy="1272.7266" fill="none" rx="3" ry="3" style="stroke:#038048;stroke-width:1.0;"/><text fill="#000000" font-family="sans-serif" font-size="14" lengthAdjust="spacing" textLength="101" x="1399.23" y="1276.0732">valid_imu: bool</text><ellipse cx="1390.23" cy="1289.0234" fill="none" rx="3" ry="3" style="stroke:#038048;stroke-width:1.0;"/><text fill="#000000" font-family="sans-serif" font-size="14" lengthAdjust="spacing" textLength="110" x="1399.23" y="1292.3701">valid_gnss: bool</text><line style="stroke:#181818;stroke-width:0.5;" x1="1380.23" x2="1563.23" y1="1299.6719" y2="1299.6719"/></g><!--class ProcessingUnit--><g id="elem_ProcessingUnit"><rect codeLine="77" fill="#F1F1F1" height="325.0469" id="ProcessingUnit" rx="2.5" ry="2.5" style="stroke:#181818;stroke-width:0.5;" width="1039" x="662.23" y="711.5"/><ellipse cx="1125.48" cy="727.5" fill="#ADD1B2" rx="11" ry="11" style="stroke:#181818;stroke-width:1.0;"/><path d="M1128.4488,733.1406 Q1127.8706,733.4375 1127.23,733.5781 Q1126.5894,733.7344 1125.8863,733.7344 Q1123.3863,733.7344 1122.0581,732.0938 Q1120.7456,730.4375 1120.7456,727.3125 Q1120.7456,724.1875 1122.0581,722.5313 Q1123.3863,720.875 1125.8863,720.875 Q1126.5894,720.875 1127.23,721.0313 Q1127.8863,721.1875 1128.4488,721.4844 L1128.4488,724.2031 Q1127.8238,723.625 1127.23,723.3594 Q1126.6363,723.0781 1126.0113,723.0781 Q1124.6675,723.0781 1123.98,724.1563 Q1123.2925,725.2188 1123.2925,727.3125 Q1123.2925,729.4063 1123.98,730.4844 Q1124.6675,731.5469 1126.0113,731.5469 Q1126.6363,731.5469 1127.23,731.2813 Q1127.8238,731 1128.4488,730.4219 L1128.4488,733.1406 Z " fill="#000000"/><text fill="#000000" font-family="sans-serif" font-size="14" lengthAdjust="spacing" textLength="104" x="1145.98" y="732.3467">ProcessingUnit</text><line style="stroke:#181818;stroke-width:0.5;" x1="663.23" x2="1700.23" y1="743.5" y2="743.5"/><rect fill="none" height="6" style="stroke:#C82930;stroke-width:1.0;" width="6" x="670.23" y="754.1484"/><text fill="#000000" font-family="sans-serif" font-size="14" lengthAdjust="spacing" textLength="245" x="682.23" y="760.4951">imu_sensors_: vector&lt;ImuSensor&gt;</text><rect fill="none" height="6" style="stroke:#C82930;stroke-width:1.0;" width="6" x="670.23" y="770.4453"/><text fill="#000000" font-family="sans-serif" font-size="14" lengthAdjust="spacing" textLength="265" x="682.23" y="776.792">gnss_sensors_: vector&lt;GnssSensor&gt;</text><rect fill="none" height="6" style="stroke:#C82930;stroke-width:1.0;" width="6" x="670.23" y="786.7422"/><text fill="#000000" font-family="sans-serif" font-size="14" lengthAdjust="spacing" textLength="133" x="682.23" y="793.0889">frequency_: double</text><rect fill="none" height="6" style="stroke:#C82930;stroke-width:1.0;" width="6" x="670.23" y="803.0391"/><text fill="#000000" font-family="sans-serif" font-size="14" lengthAdjust="spacing" textLength="106" x="682.23" y="809.3857">thread_: thread</text><rect fill="none" height="6" style="stroke:#C82930;stroke-width:1.0;" width="6" x="670.23" y="819.3359"/><text fill="#000000" font-family="sans-serif" font-size="14" lengthAdjust="spacing" textLength="169" x="682.23" y="825.6826">running_: atomic&lt;bool&gt;</text><rect fill="none" height="6" style="stroke:#C82930;stroke-width:1.0;" width="6" x="670.23" y="835.6328"/><text fill="#000000" font-family="sans-serif" font-size="14" lengthAdjust="spacing" textLength="155" x="682.23" y="841.9795">output_mutex_: mutex</text><rect fill="none" height="6" style="stroke:#C82930;stroke-width:1.0;" width="6" x="670.23" y="851.9297"/><text fill="#000000" font-family="sans-serif" font-size="14" lengthAdjust="spacing" textLength="218" x="682.23" y="858.2764">last_output_: ProcessingOutput</text><rect fill="none" height="6" style="stroke:#C82930;stroke-width:1.0;" width="6" x="670.23" y="868.2266"/><text fill="#000000" font-family="sans-serif" font-size="14" lengthAdjust="spacing" textLength="152" x="682.23" y="874.5732">data_directory_: string</text><rect fill="none" height="6" style="stroke:#C82930;stroke-width:1.0;" width="6" x="670.23" y="884.5234"/><text fill="#000000" font-family="sans-serif" font-size="14" lengthAdjust="spacing" textLength="128" x="682.23" y="890.8701">imu_file_: ofstream</text><rect fill="none" height="6" style="stroke:#C82930;stroke-width:1.0;" width="6" x="670.23" y="900.8203"/><text fill="#000000" font-family="sans-serif" font-size="14" lengthAdjust="spacing" textLength="137" x="682.23" y="907.167">gnss_file_: ofstream</text><line style="stroke:#181818;stroke-width:0.5;" x1="663.23" x2="1700.23" y1="914.4688" y2="914.4688"/><ellipse cx="673.23" cy="928.1172" fill="#84BE84" rx="3" ry="3" style="stroke:#038048;stroke-width:1.0;"/><text fill="#000000" font-family="sans-serif" font-size="14" lengthAdjust="spacing" textLength="752" x="682.23" y="931.4639">ProcessingUnit(imu_sensors: vector&lt;ImuSensor&gt;, gnss_sensors: vector&lt;GnssSensor&gt;, frequency: double)</text><ellipse cx="673.23" cy="944.4141" fill="#84BE84" rx="3" ry="3" style="stroke:#038048;stroke-width:1.0;"/><text fill="#000000" font-family="sans-serif" font-size="14" lengthAdjust="spacing" textLength="41" x="682.23" y="947.7607">start()</text><ellipse cx="673.23" cy="960.7109" fill="#84BE84" rx="3" ry="3" style="stroke:#038048;stroke-width:1.0;"/><text fill="#000000" font-family="sans-serif" font-size="14" lengthAdjust="spacing" textLength="41" x="682.23" y="964.0576">stop()</text><ellipse cx="673.23" cy="977.0078" fill="#84BE84" rx="3" ry="3" style="stroke:#038048;stroke-width:1.0;"/><text fill="#000000" font-family="sans-serif" font-size="14" lengthAdjust="spacing" textLength="248" x="682.23" y="980.3545">getSensorData(): ProcessingOutput</text><ellipse cx="673.23" cy="993.3047" fill="#84BE84" rx="3" ry="3" style="stroke:#038048;stroke-width:1.0;"/><text fill="#000000" font-family="sans-serif" font-size="14" lengthAdjust="spacing" textLength="243" x="682.23" y="996.6514">getLastOutput(): ProcessingOutput</text><rect fill="#F24D5C" height="6" style="stroke:#C82930;stroke-width:1.0;" width="6" x="670.23" y="1006.6016"/><text fill="#000000" font-family="sans-serif" font-size="14" lengthAdjust="spacing" textLength="33" x="682.23" y="1012.9482">run()</text><rect fill="#F24D5C" height="6" style="stroke:#C82930;stroke-width:1.0;" width="6" x="670.23" y="1022.8984"/><text fill="#000000" font-family="sans-serif" font-size="14" lengthAdjust="spacing" textLength="1013" x="682.23" y="1029.2451">getAttitudeRate(imu_data: vector&lt;array&lt;optional&lt;double&gt;,3&gt;&gt;, imu_timestamps: vector&lt;optional&lt;Timestamp&gt;&gt;): array&lt;optional&lt;double&gt;,3&gt;</text></g><!--class Fdir--><g id="elem_Fdir"><rect codeLine="98" fill="#F1F1F1" height="292.4531" id="Fdir" rx="2.5" ry="2.5" style="stroke:#181818;stroke-width:0.5;" width="418" x="841.73" y="343"/><ellipse cx="1033.98" cy="359" fill="#ADD1B2" rx="11" ry="11" style="stroke:#181818;stroke-width:1.0;"/><path d="M1036.9488,364.6406 Q1036.3706,364.9375 1035.73,365.0781 Q1035.0894,365.2344 1034.3863,365.2344 Q1031.8863,365.2344 1030.5581,363.5938 Q1029.2456,361.9375 1029.2456,358.8125 Q1029.2456,355.6875 1030.5581,354.0313 Q1031.8863,352.375 1034.3863,352.375 Q1035.0894,352.375 1035.73,352.5313 Q1036.3863,352.6875 1036.9488,352.9844 L1036.9488,355.7031 Q1036.3238,355.125 1035.73,354.8594 Q1035.1363,354.5781 1034.5113,354.5781 Q1033.1675,354.5781 1032.48,355.6563 Q1031.7925,356.7188 1031.7925,358.8125 Q1031.7925,360.9063 1032.48,361.9844 Q1033.1675,363.0469 1034.5113,363.0469 Q1035.1363,363.0469 1035.73,362.7813 Q1036.3238,362.5 1036.9488,361.9219 L1036.9488,364.6406 Z " fill="#000000"/><text fill="#000000" font-family="sans-serif" font-size="14" lengthAdjust="spacing" textLength="25" x="1054.48" y="363.8467">Fdir</text><line style="stroke:#181818;stroke-width:0.5;" x1="842.73" x2="1258.73" y1="375" y2="375"/><rect fill="none" height="6" style="stroke:#C82930;stroke-width:1.0;" width="6" x="849.73" y="385.6484"/><text fill="#000000" font-family="sans-serif" font-size="14" lengthAdjust="spacing" textLength="133" x="861.73" y="391.9951">frequency_: double</text><rect fill="none" height="6" style="stroke:#C82930;stroke-width:1.0;" width="6" x="849.73" y="401.9453"/><text fill="#000000" font-family="sans-serif" font-size="14" lengthAdjust="spacing" textLength="230" x="861.73" y="408.292">processing_unit_: ProcessingUnit</text><rect fill="none" height="6" style="stroke:#C82930;stroke-width:1.0;" width="6" x="849.73" y="418.2422"/><text fill="#000000" font-family="sans-serif" font-size="14" lengthAdjust="spacing" textLength="362" x="861.73" y="424.5889">sensors_: map&lt;string, tuple&lt;Sensor, int, double&gt;&gt;</text><rect fill="none" height="6" style="stroke:#C82930;stroke-width:1.0;" width="6" x="849.73" y="434.5391"/><text fill="#000000" font-family="sans-serif" font-size="14" lengthAdjust="spacing" textLength="130" x="861.73" y="440.8857">fdir_mutex_: mutex</text><rect fill="none" height="6" style="stroke:#C82930;stroke-width:1.0;" width="6" x="849.73" y="450.8359"/><text fill="#000000" font-family="sans-serif" font-size="14" lengthAdjust="spacing" textLength="169" x="861.73" y="457.1826">running_: atomic&lt;bool&gt;</text><rect fill="none" height="6" style="stroke:#C82930;stroke-width:1.0;" width="6" x="849.73" y="467.1328"/><text fill="#000000" font-family="sans-serif" font-size="14" lengthAdjust="spacing" textLength="106" x="861.73" y="473.4795">thread_: thread</text><rect fill="none" height="6" style="stroke:#C82930;stroke-width:1.0;" width="6" x="849.73" y="483.4297"/><text fill="#000000" font-family="sans-serif" font-size="14" lengthAdjust="spacing" textLength="113" x="861.73" y="489.7764">valid_data_: bool</text><line style="stroke:#181818;stroke-width:0.5;" x1="842.73" x2="1258.73" y1="497.0781" y2="497.0781"/><ellipse cx="852.73" cy="510.7266" fill="#84BE84" rx="3" ry="3" style="stroke:#038048;stroke-width:1.0;"/><text fill="#000000" font-family="sans-serif" font-size="14" lengthAdjust="spacing" textLength="392" x="861.73" y="514.0732">Fdir(processing_unit: ProcessingUnit, frequency: double)</text><ellipse cx="852.73" cy="527.0234" fill="#84BE84" rx="3" ry="3" style="stroke:#038048;stroke-width:1.0;"/><text fill="#000000" font-family="sans-serif" font-size="14" lengthAdjust="spacing" textLength="41" x="861.73" y="530.3701">start()</text><ellipse cx="852.73" cy="543.3203" fill="#84BE84" rx="3" ry="3" style="stroke:#038048;stroke-width:1.0;"/><text fill="#000000" font-family="sans-serif" font-size="14" lengthAdjust="spacing" textLength="41" x="861.73" y="546.667">stop()</text><ellipse cx="852.73" cy="559.6172" fill="#84BE84" rx="3" ry="3" style="stroke:#038048;stroke-width:1.0;"/><text fill="#000000" font-family="sans-serif" font-size="14" lengthAdjust="spacing" textLength="191" x="861.73" y="562.9639">addSensor(sensor: Sensor)</text><ellipse cx="852.73" cy="575.9141" fill="#84BE84" rx="3" ry="3" style="stroke:#038048;stroke-width:1.0;"/><text fill="#000000" font-family="sans-serif" font-size="14" lengthAdjust="spacing" textLength="198" x="861.73" y="579.2607">removeSensor(name: string)</text><rect fill="#F24D5C" height="6" style="stroke:#C82930;stroke-width:1.0;" width="6" x="849.73" y="589.2109"/><text fill="#000000" font-family="sans-serif" font-size="14" lengthAdjust="spacing" textLength="33" x="861.73" y="595.5576">run()</text><rect fill="#F24D5C" height="6" style="stroke:#C82930;stroke-width:1.0;" width="6" x="849.73" y="605.5078"/><text fill="#000000" font-family="sans-serif" font-size="14" lengthAdjust="spacing" textLength="109" x="861.73" y="611.8545">checkSensors()</text><rect fill="#F24D5C" height="6" style="stroke:#C82930;stroke-width:1.0;" width="6" x="849.73" y="621.8047"/><text fill="#000000" font-family="sans-serif" font-size="14" lengthAdjust="spacing" textLength="156" x="861.73" y="628.1514">checkProcessingUnit()</text></g><!--class Simulator--><g id="elem_Simulator"><rect codeLine="117" fill="#F1F1F1" height="276.1563" id="Simulator" rx="2.5" ry="2.5" style="stroke:#181818;stroke-width:0.5;" width="898" x="863.73" y="7"/><ellipse cx="1276.48" cy="23" fill="#ADD1B2" rx="11" ry="11" style="stroke:#181818;stroke-width:1.0;"/><path d="M1279.4488,28.6406 Q1278.8706,28.9375 1278.23,29.0781 Q1277.5894,29.2344 1276.8863,29.2344 Q1274.3863,29.2344 1273.0581,27.5938 Q1271.7456,25.9375 1271.7456,22.8125 Q1271.7456,19.6875 1273.0581,18.0313 Q1274.3863,16.375 1276.8863,16.375 Q1277.5894,16.375 1278.23,16.5313 Q1278.8863,16.6875 1279.4488,16.9844 L1279.4488,19.7031 Q1278.8238,19.125 1278.23,18.8594 Q1277.6363,18.5781 1277.0113,18.5781 Q1275.6675,18.5781 1274.98,19.6563 Q1274.2925,20.7188 1274.2925,22.8125 Q1274.2925,24.9063 1274.98,25.9844 Q1275.6675,27.0469 1277.0113,27.0469 Q1277.6363,27.0469 1278.23,26.7813 Q1278.8238,26.5 1279.4488,25.9219 L1279.4488,28.6406 Z " fill="#000000"/><text fill="#000000" font-family="sans-serif" font-size="14" lengthAdjust="spacing" textLength="64" x="1296.98" y="27.8467">Simulator</text><line style="stroke:#181818;stroke-width:0.5;" x1="864.73" x2="1760.73" y1="39" y2="39"/><rect fill="none" height="6" style="stroke:#C82930;stroke-width:1.0;" width="6" x="871.73" y="49.6484"/><text fill="#000000" font-family="sans-serif" font-size="14" lengthAdjust="spacing" textLength="245" x="883.73" y="55.9951">imu_sensors_: vector&lt;ImuSensor&gt;</text><rect fill="none" height="6" style="stroke:#C82930;stroke-width:1.0;" width="6" x="871.73" y="65.9453"/><text fill="#000000" font-family="sans-serif" font-size="14" lengthAdjust="spacing" textLength="265" x="883.73" y="72.292">gnss_sensors_: vector&lt;GnssSensor&gt;</text><rect fill="none" height="6" style="stroke:#C82930;stroke-width:1.0;" width="6" x="871.73" y="82.2422"/><text fill="#000000" font-family="sans-serif" font-size="14" lengthAdjust="spacing" textLength="313" x="883.73" y="88.5889">gnss_freq_: unordered_map&lt;string, double&gt;</text><rect fill="none" height="6" style="stroke:#C82930;stroke-width:1.0;" width="6" x="871.73" y="98.5391"/><text fill="#000000" font-family="sans-serif" font-size="14" lengthAdjust="spacing" textLength="230" x="883.73" y="104.8857">processing_unit_: ProcessingUnit</text><rect fill="none" height="6" style="stroke:#C82930;stroke-width:1.0;" width="6" x="871.73" y="114.8359"/><text fill="#000000" font-family="sans-serif" font-size="14" lengthAdjust="spacing" textLength="62" x="883.73" y="121.1826">fdir_: Fdir</text><rect fill="none" height="6" style="stroke:#C82930;stroke-width:1.0;" width="6" x="871.73" y="131.1328"/><text fill="#000000" font-family="sans-serif" font-size="14" lengthAdjust="spacing" textLength="183" x="883.73" y="137.4795">simulation_thread_: thread</text><rect fill="none" height="6" style="stroke:#C82930;stroke-width:1.0;" width="6" x="871.73" y="147.4297"/><text fill="#000000" font-family="sans-serif" font-size="14" lengthAdjust="spacing" textLength="169" x="883.73" y="153.7764">running_: atomic&lt;bool&gt;</text><rect fill="none" height="6" style="stroke:#C82930;stroke-width:1.0;" width="6" x="871.73" y="163.7266"/><text fill="#000000" font-family="sans-serif" font-size="14" lengthAdjust="spacing" textLength="179" x="883.73" y="170.0732">simulation_mutex_: mutex</text><line style="stroke:#181818;stroke-width:0.5;" x1="864.73" x2="1760.73" y1="177.375" y2="177.375"/><ellipse cx="874.73" cy="191.0234" fill="#84BE84" rx="3" ry="3" style="stroke:#038048;stroke-width:1.0;"/><text fill="#000000" font-family="sans-serif" font-size="14" lengthAdjust="spacing" textLength="872" x="883.73" y="194.3701">Simulator(imu_sensors: vector&lt;ImuSensor&gt;, gnss_sensors: vector&lt;GnssSensor&gt;, processing_unit: ProcessingUnit, fdir: Fdir)</text><ellipse cx="874.73" cy="207.3203" fill="#84BE84" rx="3" ry="3" style="stroke:#038048;stroke-width:1.0;"/><text fill="#000000" font-family="sans-serif" font-size="14" lengthAdjust="spacing" textLength="41" x="883.73" y="210.667">start()</text><ellipse cx="874.73" cy="223.6172" fill="#84BE84" rx="3" ry="3" style="stroke:#038048;stroke-width:1.0;"/><text fill="#000000" font-family="sans-serif" font-size="14" lengthAdjust="spacing" textLength="41" x="883.73" y="226.9639">stop()</text><ellipse cx="874.73" cy="239.9141" fill="#84BE84" rx="3" ry="3" style="stroke:#038048;stroke-width:1.0;"/><text fill="#000000" font-family="sans-serif" font-size="14" lengthAdjust="spacing" textLength="199" x="883.73" y="243.2607">injectImuFaults(enable: bool)</text><ellipse cx="874.73" cy="256.2109" fill="#84BE84" rx="3" ry="3" style="stroke:#038048;stroke-width:1.0;"/><text fill="#000000" font-family="sans-serif" font-size="14" lengthAdjust="spacing" textLength="210" x="883.73" y="259.5576">injectGnssFaults(enable: bool)</text><rect fill="#F24D5C" height="6" style="stroke:#C82930;stroke-width:1.0;" width="6" x="871.73" y="269.5078"/><text fill="#000000" font-family="sans-serif" font-size="14" lengthAdjust="spacing" textLength="33" x="883.73" y="275.8545">run()</text></g><!--class Logger--><g id="elem_Logger"><rect codeLine="136" fill="#F1F1F1" height="235.2656" id="Logger" rx="2.5" ry="2.5" style="stroke:#181818;stroke-width:0.5;" width="252" x="1807.73" y="371.5"/><ellipse cx="1905.48" cy="387.5" fill="#ADD1B2" rx="11" ry="11" style="stroke:#181818;stroke-width:1.0;"/><path d="M1908.4488,393.1406 Q1907.8706,393.4375 1907.23,393.5781 Q1906.5894,393.7344 1905.8863,393.7344 Q1903.3863,393.7344 1902.0581,392.0938 Q1900.7456,390.4375 1900.7456,387.3125 Q1900.7456,384.1875 1902.0581,382.5313 Q1903.3863,380.875 1905.8863,380.875 Q1906.5894,380.875 1907.23,381.0313 Q1907.8863,381.1875 1908.4488,381.4844 L1908.4488,384.2031 Q1907.8238,383.625 1907.23,383.3594 Q1906.6363,383.0781 1906.0113,383.0781 Q1904.6675,383.0781 1903.98,384.1563 Q1903.2925,385.2188 1903.2925,387.3125 Q1903.2925,389.4063 1903.98,390.4844 Q1904.6675,391.5469 1906.0113,391.5469 Q1906.6363,391.5469 1907.23,391.2813 Q1907.8238,391 1908.4488,390.4219 L1908.4488,393.1406 Z " fill="#000000"/><text fill="#000000" font-family="sans-serif" font-size="14" lengthAdjust="spacing" textLength="48" x="1925.98" y="392.3467">Logger</text><line style="stroke:#181818;stroke-width:0.5;" x1="1808.73" x2="2058.73" y1="403.5" y2="403.5"/><ellipse cx="1818.73" cy="417.1484" fill="#84BE84" rx="3" ry="3" style="stroke:#038048;stroke-width:1.0;"/><text fill="#000000" font-family="sans-serif" font-size="14" lengthAdjust="spacing" textLength="30" x="1827.73" y="420.4951">init()</text><ellipse cx="1818.73" cy="433.4453" fill="#84BE84" rx="3" ry="3" style="stroke:#038048;stroke-width:1.0;"/><text fill="#000000" font-family="sans-serif" font-size="14" lengthAdjust="spacing" textLength="226" x="1827.73" y="436.792">log(level: Level, message: string)</text><line style="stroke:#181818;stroke-width:1.0;" x1="1808.73" x2="2058.73" y1="444.0938" y2="444.0938"/><rect fill="none" height="6" style="stroke:#C82930;stroke-width:1.0;" width="6" x="1815.73" y="454.7422"/><text fill="#000000" font-family="sans-serif" font-size="14" lengthAdjust="spacing" textLength="117" x="1827.73" y="461.0889">logfile_: ofstream</text><rect fill="none" height="6" style="stroke:#C82930;stroke-width:1.0;" width="6" x="1815.73" y="471.0391"/><text fill="#000000" font-family="sans-serif" font-size="14" lengthAdjust="spacing" textLength="113" x="1827.73" y="477.3857">filename_: string</text><rect fill="none" height="6" style="stroke:#C82930;stroke-width:1.0;" width="6" x="1815.73" y="487.3359"/><text fill="#000000" font-family="sans-serif" font-size="14" lengthAdjust="spacing" textLength="130" x="1827.73" y="493.6826">log_mutex_: mutex</text><line style="stroke:#181818;stroke-width:1.0;" x1="1808.73" x2="2058.73" y1="500.9844" y2="500.9844"/><text fill="#000000" font-family="sans-serif" font-size="14" lengthAdjust="spacing" textLength="88" x="1813.73" y="517.9795">enum Level (</text><text fill="#000000" font-family="sans-serif" font-size="14" lengthAdjust="spacing" textLength="47" x="1813.73" y="534.2764">Debug</text><text fill="#000000" font-family="sans-serif" font-size="14" lengthAdjust="spacing" textLength="25" x="1813.73" y="550.5732">Info</text><text fill="#000000" font-family="sans-serif" font-size="14" lengthAdjust="spacing" textLength="56" x="1813.73" y="566.8701">Warning</text><text fill="#000000" font-family="sans-serif" font-size="14" lengthAdjust="spacing" textLength="33" x="1813.73" y="583.167">Error</text><text fill="#000000" font-family="sans-serif" font-size="14" lengthAdjust="spacing" textLength="5" x="1813.73" y="599.4639">)</text></g><!--reverse link Sensor to ImuSensor--><g id="link_Sensor_ImuSensor"><path codeLine="156" d="M367.73,1071.02 C367.73,1094.74 367.73,1100.16 367.73,1121.38 " fill="none" id="Sensor-backto-ImuSensor" style="stroke:#181818;stroke-width:1.0;"/><polygon fill="none" points="367.73,1053.02,361.73,1071.02,373.73,1071.02,367.73,1053.02" style="stroke:#181818;stroke-width:1.0;"/></g><!--reverse link Sensor to GnssSensor--><g id="link_Sensor_GnssSensor"><path codeLine="157" d="M642.9449,1052.2912 C648.8649,1055.4012 638.85,1050.06 644.73,1053 C694.54,1077.87 749.31,1101.02 802.42,1121.48 " fill="none" id="Sensor-backto-GnssSensor" style="stroke:#181818;stroke-width:1.0;"/><polygon fill="none" points="627.01,1043.92,640.1545,1057.6029,645.7354,1046.9796,627.01,1043.92" style="stroke:#181818;stroke-width:1.0;"/></g><!--link ImuSensor to ImuData--><g id="link_ImuSensor_ImuData"><path codeLine="161" d="M367.73,1299.57 C367.73,1322.66 367.73,1340.92 367.73,1361.8 " fill="none" id="ImuSensor-to-ImuData" style="stroke:#181818;stroke-width:1.0;stroke-dasharray:7.0,7.0;"/><polygon fill="#181818" points="367.73,1367.8,371.73,1358.8,367.73,1362.8,363.73,1358.8,367.73,1367.8" style="stroke:#181818;stroke-width:1.0;"/></g><!--link GnssSensor to GnssData--><g id="link_GnssSensor_GnssData"><path codeLine="162" d="M1066.73,1299.57 C1066.73,1322.66 1066.73,1340.92 1066.73,1361.8 " fill="none" id="GnssSensor-to-GnssData" style="stroke:#181818;stroke-width:1.0;stroke-dasharray:7.0,7.0;"/><polygon fill="#181818" points="1066.73,1367.8,1070.73,1358.8,1066.73,1362.8,1062.73,1358.8,1066.73,1367.8" style="stroke:#181818;stroke-width:1.0;"/></g><!--link ProcessingUnit to ProcessingOutput--><g id="link_ProcessingUnit_ProcessingOutput"><path codeLine="165" d="M1322.06,1036.86 C1344.61,1062.88 1363.3804,1084.5259 1384.0504,1108.3759 " fill="none" id="ProcessingUnit-to-ProcessingOutput" style="stroke:#181818;stroke-width:1.0;stroke-dasharray:7.0,7.0;"/><polygon fill="#181818" points="1387.98,1112.91,1385.1084,1103.4891,1384.7053,1109.1316,1379.0629,1108.7285,1387.98,1112.91" style="stroke:#181818;stroke-width:1.0;"/></g><!--link Simulator to Logger--><g id="link_Simulator_Logger"><path codeLine="168" d="M1675.66,283.14 C1712.11,301.49 1747.79,321.49 1780.73,343 C1793.75,351.5 1802.0297,357.3763 1814.5097,367.6063 " fill="none" id="Simulator-to-Logger" style="stroke:#181818;stroke-width:1.0;stroke-dasharray:7.0,7.0;"/><polygon fill="#181818" points="1819.15,371.41,1814.7254,362.611,1815.2831,368.2403,1809.6538,368.798,1819.15,371.41" style="stroke:#181818;stroke-width:1.0;"/></g><!--reverse link Simulator to ProcessingUnit--><g id="link_Simulator_ProcessingUnit"><path codeLine="172" d="M1314.0624,295.1284 C1312.4324,394.0984 1304.74,518.29 1277.73,635 C1271.9,660.18 1263.79,686.16 1254.72,711.3 " fill="none" id="Simulator-backto-ProcessingUnit" style="stroke:#181818;stroke-width:1.0;"/><polygon fill="#181818" points="1314.26,283.13,1310.1617,289.0633,1314.0624,295.1284,1318.1607,289.1951,1314.26,283.13" style="stroke:#181818;stroke-width:1.0;"/></g><!--reverse link Simulator to Fdir--><g id="link_Simulator_Fdir"><path codeLine="173" d="M1200.3729,292.6564 C1185.2829,312.3564 1177.01,323.16 1161.81,343 " fill="none" id="Simulator-backto-Fdir" style="stroke:#181818;stroke-width:1.0;"/><polygon fill="#181818" points="1207.67,283.13,1200.846,285.4608,1200.3729,292.6564,1207.1969,290.3256,1207.67,283.13" style="stroke:#181818;stroke-width:1.0;"/></g><!--reverse link Simulator to ImuSensor--><g id="link_Simulator_ImuSensor"><path codeLine="176" d="M851.853,222.9976 C576.683,294.2376 257.85,429.36 90.73,695 C6,829.68 10.53,915.58 90.73,1053 C106.39,1079.83 128.54,1102.43 153.57,1121.36 " fill="none" id="Simulator-backto-ImuSensor" style="stroke:#181818;stroke-width:1.0;"/><polygon fill="#181818" points="863.47,219.99,856.659,217.6215,851.853,222.9976,858.664,225.3661,863.47,219.99" style="stroke:#181818;stroke-width:1.0;"/></g><!--reverse link Simulator to GnssSensor--><g id="link_Simulator_GnssSensor"><path codeLine="177" d="M1467.6185,291.7907 C1652.8285,481.6907 1916.64,819.04 1718.73,1053 C1666.77,1114.42 1439.84,1093.77 1361.73,1113 C1351,1115.64 1340.1,1118.48 1329.12,1121.46 " fill="none" id="Simulator-backto-GnssSensor" style="stroke:#181818;stroke-width:1.0;"/><polygon fill="#181818" points="1459.24,283.2,1460.5657,290.2882,1467.6185,291.7907,1466.2928,284.7025,1459.24,283.2" style="stroke:#181818;stroke-width:1.0;"/></g><!--reverse link ProcessingUnit to ImuSensor--><g id="link_ProcessingUnit_ImuSensor"><path codeLine="181" d="M777.3404,1041.1805 C706.1504,1070.4305 645.51,1095.35 581.93,1121.48 " fill="none" id="ProcessingUnit-backto-ImuSensor" style="stroke:#181818;stroke-width:1.0;"/><polygon fill="none" points="788.44,1036.62,781.37,1035.2004,777.3404,1041.1805,784.4104,1042.6001,788.44,1036.62" style="stroke:#181818;stroke-width:1.0;"/></g><!--reverse link ProcessingUnit to GnssSensor--><g id="link_ProcessingUnit_GnssSensor"><path codeLine="182" d="M1122.1775,1048.2077 C1112.1975,1077.2277 1106.05,1095.11 1097.13,1121.06 " fill="none" id="ProcessingUnit-backto-GnssSensor" style="stroke:#181818;stroke-width:1.0;"/><polygon fill="none" points="1126.08,1036.86,1120.3462,1041.233,1122.1775,1048.2077,1127.9113,1043.8347,1126.08,1036.86" style="stroke:#181818;stroke-width:1.0;"/></g><!--reverse link Fdir to ProcessingUnit--><g id="link_Fdir_ProcessingUnit"><path codeLine="185" d="M1104.2336,646.4242 C1112.7436,671.3042 1117.75,685.94 1126.39,711.22 " fill="none" id="Fdir-backto-ProcessingUnit" style="stroke:#181818;stroke-width:1.0;"/><polygon fill="none" points="1100.35,635.07,1098.5071,642.0416,1104.2336,646.4242,1106.0765,639.4526,1100.35,635.07" style="stroke:#181818;stroke-width:1.0;"/></g><!--reverse link Fdir to Sensor--><g id="link_Fdir_Sensor"><path codeLine="186" d="M830.7446,595.852 C766.8546,627.912 707.62,659.04 644.73,695 C638.77,698.4 632.77,701.88 626.73,705.42 " fill="none" id="Fdir-backto-Sensor" style="stroke:#181818;stroke-width:1.0;"/><polygon fill="none" points="841.47,590.47,834.3133,589.5859,830.7446,595.852,837.9013,596.7361,841.47,590.47" style="stroke:#181818;stroke-width:1.0;"/></g><!--SRC=[pLTBR-Gs3BxFhn3GmqwQyLvw2mO3fCsc290-aEoYHqDZSpngRScLv60ds_xtaf8iouz9Te4jiASe94to8pzIcZViUc-iveLbZo2DqgoekJ4htalTlxtkqugnxoHl8BzYg1Uo8i51mzyToEA4qb9r-nf8kkyE1z2v4SzaBQHrtofXO6IcEodH3yguLOqejdkbwfrpoxlQvaB-2OM5Si707ZLmKlX34hJfB7n4XVjBSWHXywujkQNexqK3nlAcdQh6tw7sqWDV4-OUyeP5m3sG3KlGEh0Rvg3s1XVa2qDgkmv7rVfJ1VPNTBw-I2fAmji-1cbYkKXpZmb_SFcIAiLoASo3BoTfg4ukLkfiblf5Q09cy-zgzQRlj6ZQ6XgGbbkXf5bv6jmrNSA4B816L-HqYzeRRZdrvZ9Q_e-byzIu9PgiGNAqzQ3xklxe7BlwJVFBF68yL211OoqVEI4cus16vV2eVvR6l02Rr17tOFiD0KypV0bvR-UPG2TAlojifo6XW5DG9IvjJxu93xcrERdEFwRSZTBJelGvIaULVprQgymu40bEKy62-z-rAi0OxCzldMqx-oeeORiIbf4bgjDvrNEgSfjdbdoKdXQb8mzFl1PbBffkc7Olgh1mGUPw-GiNaXMgQPN4cJOp_1-ayEWpT9ORHs2337z2dYczZTFi64JEvpO3yvtHugMGpLTsTlO2o9HhocoPPwuMGNarQo9Pu7BaUIcqo-oKNbOEtq7KT0se0ug1Dn7JL4xr7DTedPHdeJeRbjPcgJGBY-35ky5_HZD00xg0jRyHlE2CKJhqzZemye5k4C93rOgvSgtvQQjQMlkytleKTviVTfWw6SVf6E15upWkkntcSTRJC82ts2DFksMwj15Atc7rHzscTf3DGCI6jzj-tTeETzhMLs_Zbsj8mBCJ0y-9TPwA2xprW-QO5YQDka68rfEqfrb_4GTuMORxn0Ez2ZUqKsfer1Cit3SNewONHoZ-ybOcaKoeVJ7qvH4xNMCDzDVT2Nx843jQT5Bf4ZG-xDAsXHvzRkzT6wySZHmLVDh8j_oB5atotS8BiA_5LvZzruc1I3oUrsv_3EmU06R-0l065FYCHPQyz-vLLK7_wlVT3w9FtfS82TIgMjVm1FKLkwS_6uR3RdWrvbpc5hIg5bOiYQQ_7SXqFeVa16JN-41iZVyoTWFxhdAdEtbGxl07rzBxOUoTraXNF0PSMPQn1_1TDKVHcbvu9u-WXUMoWEIvQv0emFRSGFZ5Sq3fyDpbiaoUWQiWtVv3_gBHI9nOXy0tq88iQUfHSCurljZ8YYaPNrgzmVGzDhXu-tONNws9AnB79nt6d5ptFfAXKBE7K0opcdn4FcSN3Ff-ZzKRnYZunZJ8ErNMSserB1Po58ZM5-WdUfyOGGweCz6quH9fvZjKYmCKfw86fDOK41NAhOBXq-_HxMHjZ9NEVXJjo0qoiRO2Bv2XJMRI9pFn4mqdyZaDhgjAG-NBD6_AvqQVVAP6AImentcuUvT2yQKQnlXzC6UkvgMCyk3vFm00]--></g></svg>